# xmcd CD database file
#
# Track frame offsets:
#	150
#	23739
#	44456
#	68457
#	91123
#	118156
#	151623
#	182704
#	208928
#	236061
#	263653
#	295641
#
# Disc length: 4242 seconds
#
# Revision: 0
# Processed by: cddbd v1.4PL0 Copyright (c) Steve Scherf et al.
# Submitted via: CDex 1.50beta10
#
DISCID=9a10900c
DTITLE=Diana Krall - Live in Paris
DYEAR=1900
DGENRE=Jazz
TTITLE0=I Love Being Here With You
TTITLE1=Let's Fall in Love
TTITLE2='Deed I do
TTITLE3=The Look of Love
TTITLE4=East of the Sun ( and West of the Moon)
TTITLE5=I've Got You Under My Skin
TTITLE6=Devil May Care
TTITLE7=Maybe You'll Be There
TTITLE8='S Wonderful
TTITLE9=Fly Me To The Moon
TTITLE10=A Case of You
TTITLE11=Just the Way You Are
EXTD=
EXTT0=
EXTT1=
EXTT2=
EXTT3=
EXTT4=
EXTT5=
EXTT6=
EXTT7=
EXTT8=
EXTT9=
EXTT10=
EXTT11=
PLAYORDER=
